<mxfile host="65bd71144e">
    <diagram id="8vKiTyFwNre9IRusRGPc" name="Page-1">
        <mxGraphModel dx="725" dy="711" grid="1" gridSize="10" guides="1" tooltips="1" connect="1" arrows="1" fold="1" page="1" pageScale="1" pageWidth="850" pageHeight="1100" math="0" shadow="0">
            <root>
                <mxCell id="0"/>
                <mxCell id="1" parent="0"/>
                <mxCell id="2" value="&lt;table border=&quot;1&quot; width=&quot;100%&quot; height=&quot;100%&quot; cellpadding=&quot;4&quot; style=&quot;width:100%;height:100%;border-collapse:collapse;&quot;&gt;&lt;tbody&gt;&lt;tr&gt;&lt;th align=&quot;center&quot;&gt;Owner&lt;/th&gt;&lt;/tr&gt;&lt;tr&gt;&lt;td&gt;- Id Varchar(255)&lt;br&gt;- address Varchar(255)&lt;br&gt;- dob DATETME(6)&lt;br&gt;- email Varchar(255)&lt;br&gt;- enabled Bit(1)&lt;br&gt;- gender Varchar(255)&lt;br&gt;- name Varchar(255)&lt;br&gt;- occupation Vrchar(255)&lt;br&gt;- password Varchar(255)&lt;br&gt;- phone Varchar(255)&lt;br&gt;- profile Varchar(255)&lt;br&gt;- regDate DATETIME(6)&lt;br&gt;- role Varchar(255)&lt;br&gt;- collectedRent Int&lt;br&gt;- totalCollectedRent Int&lt;/td&gt;&lt;/tr&gt;&lt;tr&gt;&lt;td align=&quot;center&quot;&gt;&lt;br&gt;&lt;/td&gt;&lt;/tr&gt;&lt;/tbody&gt;&lt;/table&gt;" style="text;html=1;whiteSpace=wrap;strokeColor=none;fillColor=none;overflow=fill;" vertex="1" parent="1">
                    <mxGeometry x="100" y="50" width="210" height="290" as="geometry"/>
                </mxCell>
                <mxCell id="3" value="&lt;table border=&quot;1&quot; width=&quot;100%&quot; height=&quot;100%&quot; cellpadding=&quot;4&quot; style=&quot;width:100%;height:100%;border-collapse:collapse;&quot;&gt;&lt;tbody&gt;&lt;tr&gt;&lt;th align=&quot;center&quot;&gt;Owner&lt;/th&gt;&lt;/tr&gt;&lt;tr&gt;&lt;td&gt;- Id Varchar(255)&lt;br&gt;- address Varchar(255)&lt;br&gt;- dob DATETME(6)&lt;br&gt;- email Varchar(255)&lt;br&gt;- enabled Bit(1)&lt;br&gt;- gender Varchar(255)&lt;br&gt;- name Varchar(255)&lt;br&gt;- occupation Vrchar(255)&lt;br&gt;- password Varchar(255)&lt;br&gt;- phone Varchar(255)&lt;br&gt;- profile Varchar(255)&lt;br&gt;- regDate DATETIME(6)&lt;br&gt;- role Varchar(255)&lt;br&gt;- collectedRent Int&lt;br&gt;- totalCollectedRent Int&lt;/td&gt;&lt;/tr&gt;&lt;tr&gt;&lt;td align=&quot;center&quot;&gt;&lt;br&gt;&lt;/td&gt;&lt;/tr&gt;&lt;/tbody&gt;&lt;/table&gt;" style="text;html=1;whiteSpace=wrap;strokeColor=none;fillColor=none;overflow=fill;" vertex="1" parent="1">
                    <mxGeometry x="425" y="50" width="210" height="290" as="geometry"/>
                </mxCell>
                <mxCell id="4" value="" style="endArrow=classic;startArrow=classic;html=1;entryX=0;entryY=0.5;entryDx=0;entryDy=0;fillColor=#60a917;strokeColor=#2D7600;" edge="1" parent="1" source="2" target="3">
                    <mxGeometry width="50" height="50" relative="1" as="geometry">
                        <mxPoint x="420" y="240" as="sourcePoint"/>
                        <mxPoint x="430" y="190" as="targetPoint"/>
                    </mxGeometry>
                </mxCell>
            </root>
        </mxGraphModel>
    </diagram>
</mxfile>